HIERARCHY
ROOT Hips
{
	OFFSET 0.000000 0.000000 0.000000 
	CHANNELS 6 Xposition Yposition Zposition Xrotation Yrotation Zrotation
	JOINT Spine
	{
		OFFSET 0.000000 1.722820 2.584230 
		CHANNELS 3 Xrotation Yrotation Zrotation
		JOINT Spine1
		{
			OFFSET 0.000000 0.598330 3.393290 
			CHANNELS 3 Xrotation Yrotation Zrotation
			JOINT Spine2
			{
				OFFSET 0.000000 0.300310 3.432520 
				CHANNELS 3 Xrotation Yrotation Zrotation
				JOINT Spine3
				{
					OFFSET 0.000000 0.000000 3.445640 
					CHANNELS 3 Xrotation Yrotation Zrotation
					JOINT Neck
					{
						OFFSET 0.000000 -1.292100 9.044790 
						CHANNELS 3 Xrotation Yrotation Zrotation
						JOINT Head
						{
							OFFSET 0.000000 -0.822700 4.665770 
							CHANNELS 3 Xrotation Yrotation Zrotation
							End Site
							{
								OFFSET 0.000000 0.000010 5.577620 
							}
						}
					}
					JOINT RightShoulder
					{
						OFFSET -1.175120 -1.958530 6.345670 
						CHANNELS 3 Xrotation Yrotation Zrotation
						JOINT RightArm
						{
							OFFSET -5.836450 0.000000 0.000000 
							CHANNELS 3 Xrotation Yrotation Zrotation
							JOINT RightForeArm
							{
								OFFSET -10.886420 0.000000 0.000000 
								CHANNELS 3 Xrotation Yrotation Zrotation
								JOINT RightHand
								{
									OFFSET -10.194950 0.000000 0.000000 
									CHANNELS 3 Xrotation Yrotation Zrotation
									JOINT RightHandEnd
									{
										OFFSET -2.735920 0.000000 0.000000 
										CHANNELS 3 Xrotation Yrotation Zrotation
										End Site
										{
											OFFSET -2.735920 0.000000 0.000000 
										}
									}
									JOINT RightHandThumb1
									{
										OFFSET -1.094370 -1.823950 -0.729580 
										CHANNELS 3 Yrotation Xrotation Zrotation
										End Site
										{
											OFFSET -2.642700 -0.708110 0.000000 
										}
									}
								}
							}
						}
					}
					JOINT LeftShoulder
					{
						OFFSET 1.175120 -1.958530 6.345670 
						CHANNELS 3 Xrotation Yrotation Zrotation
						JOINT LeftArm
						{
							OFFSET 5.836450 0.000000 0.000000 
							CHANNELS 3 Xrotation Yrotation Zrotation
							JOINT LeftForeArm
							{
								OFFSET 10.886420 0.000000 0.000000 
								CHANNELS 3 Xrotation Yrotation Zrotation
								JOINT LeftHand
								{
									OFFSET 10.194950 0.000000 0.000000 
									CHANNELS 3 Xrotation Yrotation Zrotation
									JOINT LeftHandEnd
									{
										OFFSET 2.735920 0.000000 0.000000 
										CHANNELS 3 Xrotation Yrotation Zrotation
										End Site
										{
											OFFSET 2.735920 0.000000 0.000000 
										}
									}
									JOINT LeftHandThumb1
									{
										OFFSET 1.094370 -1.823950 -0.729580 
										CHANNELS 3 Yrotation Xrotation Zrotation
										End Site
										{
											OFFSET 2.642700 -0.708110 0.000000 
										}
									}
								}
							}
						}
					}
				}
			}
		}
	}
	JOINT RightUpLeg
	{
		OFFSET -3.486200 0.000000 -1.018440 
		CHANNELS 3 Xrotation Yrotation Zrotation
		JOINT RightLeg
		{
			OFFSET 0.000010 0.000000 -16.688210 
			CHANNELS 3 Xrotation Yrotation Zrotation
			JOINT RightFoot
			{
				OFFSET 0.000010 0.000000 -16.775360 
				CHANNELS 3 Xrotation Yrotation Zrotation
				JOINT RightToeBase
				{
					OFFSET 0.000000 -4.945160 -1.799890 
					CHANNELS 3 Xrotation Yrotation Zrotation
					End Site
					{
						OFFSET 0.000000 -2.820300 -0.000000 
					}
				}
			}
		}
	}
	JOINT LeftUpLeg
	{
		OFFSET 3.486200 0.000000 -1.018440 
		CHANNELS 3 Xrotation Yrotation Zrotation
		JOINT LeftLeg
		{
			OFFSET 0.000010 0.000000 -16.688210 
			CHANNELS 3 Xrotation Yrotation Zrotation
			JOINT LeftFoot
			{
				OFFSET 0.000010 0.000000 -16.775360 
				CHANNELS 3 Xrotation Yrotation Zrotation
				JOINT LeftToeBase
				{
					OFFSET 0.000000 -4.945160 -1.799890 
					CHANNELS 3 Xrotation Yrotation Zrotation
					End Site
					{
						OFFSET 0.000000 -2.820300 -0.000000 
					}
				}
			}
		}
	}
}
MOTION
Frames: 7
Frame Time: 0.008333
39.151001 36.354900 -3.398300 -84.550697 1.577100 2.402900 1.383200 -1.535500 -0.435300 0.985600 -0.223800 -0.029600 1.397900 -1.255200 0.185200 -0.619600 -0.153100 0.206300 -3.603000 -1.444400 -0.740700 -8.524000 5.806800 -1.067100 4.350300 -1.777400 0.894800 49.993401 -50.603600 47.071899 0.000000 0.000000 34.046299 1.135800 -6.850400 -7.592000 0.000000 -0.000000 0.000000 -0.000000 -0.000000 0.000000 4.253300 9.511700 0.233800 25.528700 61.160801 -15.789200 -0.000000 -0.000000 -42.345901 6.091400 11.768400 12.909800 -0.000000 -0.000000 -0.000000 -0.000000 -0.000000 0.000000 -2.838200 -0.451900 -13.121500 15.561800 0.000000 0.000000 -15.706700 -1.580600 -4.270400 -2.030700 0.000000 -0.000000 -6.771900 -8.011100 6.212800 21.033800 0.000000 0.000000 -18.652800 7.167800 -2.531600 -2.134500 0.000000 -0.000000 
39.165699 36.349499 -3.391100 -84.473801 1.634000 2.451900 1.445100 -1.586600 -0.427500 1.015500 -0.226100 -0.029400 1.389100 -1.241200 0.176100 -0.635000 -0.139900 0.210000 -3.622200 -1.440300 -0.788300 -8.626900 5.736100 -1.144000 4.339200 -1.662300 0.976900 49.637798 -50.730499 46.869598 0.000000 0.000000 34.385101 1.151100 -6.762500 -7.571400 -0.000000 -0.000000 0.000000 -0.000000 0.000000 -0.000000 4.237100 9.424900 0.230500 25.497101 61.163300 -15.737800 -0.000000 -0.000000 -42.734600 5.955000 11.925100 13.101100 0.000000 0.000000 -0.000000 0.000000 -0.000000 -0.000000 -2.901100 -0.484400 -13.139100 15.558600 0.000000 0.000000 -15.725100 -1.597700 -4.314200 -2.021800 0.000000 -0.000000 -7.001900 -8.060800 6.176600 21.326799 0.000000 0.000000 -18.726101 7.163700 -2.572400 -2.209300 0.000000 -0.000000 
39.182098 36.343899 -3.382800 -84.397797 1.689500 2.499400 1.505100 -1.635400 -0.417500 1.044800 -0.231700 -0.029700 1.381700 -1.223300 0.165800 -0.650300 -0.124900 0.212500 -3.640800 -1.439300 -0.836300 -8.725300 5.665200 -1.218000 4.330100 -1.549000 1.058200 49.265499 -50.861301 46.652000 0.000000 0.000000 34.716900 1.044100 -6.657500 -7.576000 0.000000 0.000000 0.000000 -0.000000 -0.000000 -0.000000 4.224300 9.339700 0.222400 25.458401 61.163200 -15.682800 -0.000000 -0.000000 -43.132599 5.828000 12.055500 13.215100 0.000000 0.000000 0.000000 -0.000000 -0.000000 0.000000 -2.962500 -0.511100 -13.163800 15.559000 0.000000 0.000000 -15.746300 -1.615900 -4.350100 -2.005200 0.000000 -0.000000 -7.228300 -8.104700 6.134700 21.618500 0.000000 0.000000 -18.801600 7.156900 -2.606300 -2.284500 0.000000 -0.000000 
39.200001 36.338001 -3.373200 -84.322800 1.743000 2.542800 1.562400 -1.680500 -0.406600 1.073300 -0.239600 -0.030100 1.376600 -1.202100 0.157500 -0.665200 -0.109000 0.214500 -3.660500 -1.437100 -0.881400 -8.819500 5.591800 -1.286100 4.320800 -1.434600 1.135800 48.899101 -50.992599 46.438900 0.000000 0.000000 35.050499 1.030200 -6.609700 -7.586400 -0.000000 -0.000000 0.000000 -0.000000 -0.000000 0.000000 4.216000 9.258400 0.211500 25.425900 61.155701 -15.641400 -0.000000 -0.000000 -43.538200 5.726100 12.117500 13.196200 0.000000 -0.000000 -0.000000 -0.000000 0.000000 -0.000000 -3.022600 -0.531600 -13.193900 15.564000 0.000000 0.000000 -15.770600 -1.634200 -4.377000 -1.977900 0.000000 -0.000000 -7.448800 -8.143000 6.091500 21.907499 0.000000 0.000000 -18.879299 7.147800 -2.634300 -2.359800 0.000000 -0.000000 
39.219299 36.331699 -3.362000 -84.248497 1.794100 2.580200 1.616000 -1.721300 -0.395800 1.100700 -0.249400 -0.030600 1.374200 -1.178100 0.153000 -0.679700 -0.092100 0.217200 -3.682100 -1.433200 -0.922200 -8.910400 5.515400 -1.344700 4.312000 -1.324300 1.216900 48.518398 -51.130600 46.200699 0.000000 0.000000 35.387299 0.980100 -6.590300 -7.605500 -0.000000 -0.000000 0.000000 -0.000000 -0.000000 0.000000 4.212600 9.181500 0.192600 25.395500 61.142601 -15.605700 -0.000000 -0.000000 -43.956799 5.588000 12.092600 13.065400 0.000000 0.000000 0.000000 0.000000 0.000000 0.000000 -3.081900 -0.546100 -13.228600 15.574500 0.000000 0.000000 -15.798300 -1.651900 -4.394200 -1.940900 0.000000 -0.000000 -7.663200 -8.176200 6.049700 22.193800 0.000000 0.000000 -18.959200 7.137900 -2.657200 -2.434600 0.000000 -0.000000 
39.240002 36.325199 -3.349100 -84.175301 1.842300 2.610800 1.665600 -1.757100 -0.385100 1.126800 -0.261200 -0.031000 1.375400 -1.151400 0.153700 -0.693100 -0.074900 0.220400 -3.708500 -1.427400 -0.957600 -8.998200 5.436300 -1.392200 4.299500 -1.216300 1.295800 48.132401 -51.272099 45.948700 0.000000 0.000000 35.717701 0.944400 -6.596900 -7.604400 0.000000 0.000000 -0.000000 0.000000 0.000000 0.000000 4.214100 9.110400 0.171700 25.382299 61.119099 -15.596700 -0.000000 -0.000000 -44.386398 5.348000 11.971600 12.857600 0.000000 -0.000000 -0.000000 0.000000 -0.000000 0.000000 -3.139000 -0.554000 -13.267100 15.589000 0.000000 0.000000 -15.828800 -1.668800 -4.401100 -1.895500 0.000000 -0.000000 -7.869100 -8.203800 6.010600 22.474899 0.000000 0.000000 -19.041100 7.126500 -2.674900 -2.509700 0.000000 -0.000000 
39.262100 36.318401 -3.334300 -84.103104 1.887000 2.634500 1.710100 -1.788100 -0.375700 1.151500 -0.275500 -0.031400 1.380700 -1.118300 0.165400 -0.705300 -0.058400 0.222500 -3.739600 -1.428400 -0.983300 -9.082000 5.362800 -1.435700 4.284900 -1.116700 1.371200 47.735901 -51.413200 45.674301 0.000000 0.000000 36.044201 0.966300 -6.615900 -7.562200 0.000000 0.000000 -0.000000 0.000000 0.000000 -0.000000 4.219800 9.041000 0.144300 25.380800 61.091499 -15.607200 -0.000000 -0.000000 -44.824001 5.032800 11.782700 12.625700 -0.000000 0.000000 -0.000000 -0.000000 0.000000 0.000000 -3.193000 -0.554600 -13.311000 15.606700 0.000000 0.000000 -15.861600 -1.683700 -4.396300 -1.843900 0.000000 -0.000000 -8.066500 -8.224800 5.973400 22.751101 0.000000 0.000000 -19.125200 7.113700 -2.685800 -2.585100 0.000000 -0.000000 
